<?xml version='1.0' encoding='UTF-8' standalone='no'?>
<!-- Created with Fritzing (http://www.fritzing.org/) -->
<svg xmlns:svg='http://www.w3.org/2000/svg' xmlns='http://www.w3.org/2000/svg' version='1.2' baseProfile='tiny' x='0in' y='0in' width='4.08333in' height='1.70618in' viewBox='0 0 294 122.845' >
<g partID='63170'><g transform='translate(99.6,5.6)' ><g id="schematic" xmlns="http://www.w3.org/2000/svg">
<rect width="63.9" x="14.85" height="107.1" stroke="#000000" class="interior rect" y="0.45" stroke-width="0.9" xmlns="http://www.w3.org/2000/svg" fill="#FFFFFF" stroke-linecap="round"/>
<line x1="78.8499" x2="93.2499" id="connector27pin" stroke="#787878" class="pin" stroke-width="0.699999" xmlns="http://www.w3.org/2000/svg" y1="7.2" fill="none" stroke-linecap="round" y2="7.2"/>
<text font-family="'Droid Sans'" x="86.0499" stroke="none" text-anchor="middle" class="text" stroke-width="0" font-size="2.5" y="6.14999" xmlns="http://www.w3.org/2000/svg" fill="#8c8c8c">28</text>
<text font-family="'Droid Sans'" x="77.4499" stroke="none" text-anchor="end" class="text" stroke-width="0" font-size="3.49999" y="7.89999" xmlns="http://www.w3.org/2000/svg" fill="#8c8c8c">A5</text>
<g width="0.699999" x="93.2499" height="0.699999" id="connector27terminal" stroke="none" class="terminal" y="6.85001" stroke-width="0" xmlns="http://www.w3.org/2000/svg" fill="none"/>
<line x1="78.8499" x2="93.2499" id="connector26pin" stroke="#787878" class="pin" stroke-width="0.699999" xmlns="http://www.w3.org/2000/svg" y1="14.4" fill="none" stroke-linecap="round" y2="14.4"/>
<text font-family="'Droid Sans'" x="86.0499" stroke="none" text-anchor="middle" class="text" stroke-width="0" font-size="2.5" y="13.35" xmlns="http://www.w3.org/2000/svg" fill="#8c8c8c">27</text>
<text font-family="'Droid Sans'" x="77.4499" stroke="none" text-anchor="end" class="text" stroke-width="0" font-size="3.49999" y="15.1" xmlns="http://www.w3.org/2000/svg" fill="#8c8c8c">A4</text>
<g width="0.699999" x="93.2499" height="0.699999" id="connector26terminal" stroke="none" class="terminal" y="14.05" stroke-width="0" xmlns="http://www.w3.org/2000/svg" fill="none"/>
<line x1="78.8499" x2="93.2499" id="connector25pin" stroke="#787878" class="pin" stroke-width="0.699999" xmlns="http://www.w3.org/2000/svg" y1="21.6" fill="none" stroke-linecap="round" y2="21.6"/>
<text font-family="'Droid Sans'" x="86.0499" stroke="none" text-anchor="middle" class="text" stroke-width="0" font-size="2.5" y="20.55" xmlns="http://www.w3.org/2000/svg" fill="#8c8c8c">26</text>
<text font-family="'Droid Sans'" x="77.4499" stroke="none" text-anchor="end" class="text" stroke-width="0" font-size="3.49999" y="22.3" xmlns="http://www.w3.org/2000/svg" fill="#8c8c8c">A3</text>
<g width="0.699999" x="93.2499" height="0.699999" id="connector25terminal" stroke="none" class="terminal" y="21.25" stroke-width="0" xmlns="http://www.w3.org/2000/svg" fill="none"/>
<line x1="78.8499" x2="93.2499" id="connector24pin" stroke="#787878" class="pin" stroke-width="0.699999" xmlns="http://www.w3.org/2000/svg" y1="28.8" fill="none" stroke-linecap="round" y2="28.8"/>
<text font-family="'Droid Sans'" x="86.0499" stroke="none" text-anchor="middle" class="text" stroke-width="0" font-size="2.5" y="27.75" xmlns="http://www.w3.org/2000/svg" fill="#8c8c8c">25</text>
<text font-family="'Droid Sans'" x="77.4499" stroke="none" text-anchor="end" class="text" stroke-width="0" font-size="3.49999" y="29.4999" xmlns="http://www.w3.org/2000/svg" fill="#8c8c8c">A2</text>
<g width="0.699999" x="93.2499" height="0.699999" id="connector24terminal" stroke="none" class="terminal" y="28.4499" stroke-width="0" xmlns="http://www.w3.org/2000/svg" fill="none"/>
<line x1="78.8499" x2="93.2499" id="connector23pin" stroke="#787878" class="pin" stroke-width="0.699999" xmlns="http://www.w3.org/2000/svg" y1="36" fill="none" stroke-linecap="round" y2="36"/>
<text font-family="'Droid Sans'" x="86.0499" stroke="none" text-anchor="middle" class="text" stroke-width="0" font-size="2.5" y="34.95" xmlns="http://www.w3.org/2000/svg" fill="#8c8c8c">24</text>
<text font-family="'Droid Sans'" x="77.4499" stroke="none" text-anchor="end" class="text" stroke-width="0" font-size="3.49999" y="36.6999" xmlns="http://www.w3.org/2000/svg" fill="#8c8c8c">A1</text>
<g width="0.699999" x="93.2499" height="0.699999" id="connector23terminal" stroke="none" class="terminal" y="35.6499" stroke-width="0" xmlns="http://www.w3.org/2000/svg" fill="none"/>
<line x1="78.8499" x2="93.2499" id="connector22pin" stroke="#787878" class="pin" stroke-width="0.699999" xmlns="http://www.w3.org/2000/svg" y1="43.2" fill="none" stroke-linecap="round" y2="43.2"/>
<text font-family="'Droid Sans'" x="86.0499" stroke="none" text-anchor="middle" class="text" stroke-width="0" font-size="2.5" y="42.15" xmlns="http://www.w3.org/2000/svg" fill="#8c8c8c">23</text>
<text font-family="'Droid Sans'" x="77.4499" stroke="none" text-anchor="end" class="text" stroke-width="0" font-size="3.49999" y="43.8999" xmlns="http://www.w3.org/2000/svg" fill="#8c8c8c">A0</text>
<g width="0.699999" x="93.2499" height="0.699999" id="connector22terminal" stroke="none" class="terminal" y="42.8499" stroke-width="0" xmlns="http://www.w3.org/2000/svg" fill="none"/>
<line x1="78.8499" x2="93.2499" id="connector21pin" stroke="#787878" class="pin" stroke-width="0.699999" xmlns="http://www.w3.org/2000/svg" y1="50.4" fill="none" stroke-linecap="round" y2="50.4"/>
<text font-family="'Droid Sans'" x="86.0499" stroke="none" text-anchor="middle" class="text" stroke-width="0" font-size="2.5" y="49.35" xmlns="http://www.w3.org/2000/svg" fill="#8c8c8c">22</text>
<text font-family="'Droid Sans'" x="77.4499" stroke="none" text-anchor="end" class="text" stroke-width="0" font-size="3.49999" y="51.0999" xmlns="http://www.w3.org/2000/svg" fill="#8c8c8c">GND</text>
<g width="0.699999" x="93.2499" height="0.699999" id="connector21terminal" stroke="none" class="terminal" y="50.0499" stroke-width="0" xmlns="http://www.w3.org/2000/svg" fill="none"/>
<line x1="78.8499" x2="93.2499" id="connector20pin" stroke="#787878" class="pin" stroke-width="0.699999" xmlns="http://www.w3.org/2000/svg" y1="57.6" fill="none" stroke-linecap="round" y2="57.6"/>
<text font-family="'Droid Sans'" x="86.0499" stroke="none" text-anchor="middle" class="text" stroke-width="0" font-size="2.5" y="56.55" xmlns="http://www.w3.org/2000/svg" fill="#8c8c8c">21</text>
<text font-family="'Droid Sans'" x="77.4499" stroke="none" text-anchor="end" class="text" stroke-width="0" font-size="3.49999" y="58.2999" xmlns="http://www.w3.org/2000/svg" fill="#8c8c8c">AREF</text>
<g width="0.699999" x="93.2499" height="0.699999" id="connector20terminal" stroke="none" class="terminal" y="57.2499" stroke-width="0" xmlns="http://www.w3.org/2000/svg" fill="none"/>
<line x1="78.8499" x2="93.2499" id="connector19pin" stroke="#787878" class="pin" stroke-width="0.699999" xmlns="http://www.w3.org/2000/svg" y1="64.8" fill="none" stroke-linecap="round" y2="64.8"/>
<text font-family="'Droid Sans'" x="86.0499" stroke="none" text-anchor="middle" class="text" stroke-width="0" font-size="2.5" y="63.75" xmlns="http://www.w3.org/2000/svg" fill="#8c8c8c">20</text>
<text font-family="'Droid Sans'" x="77.4499" stroke="none" text-anchor="end" class="text" stroke-width="0" font-size="3.49999" y="65.4999" xmlns="http://www.w3.org/2000/svg" fill="#8c8c8c">AVCC</text>
<g width="0.699999" x="93.2499" height="0.699999" id="connector19terminal" stroke="none" class="terminal" y="64.4499" stroke-width="0" xmlns="http://www.w3.org/2000/svg" fill="none"/>
<line x1="78.8499" x2="93.2499" id="connector18pin" stroke="#787878" class="pin" stroke-width="0.699999" xmlns="http://www.w3.org/2000/svg" y1="72" fill="none" stroke-linecap="round" y2="72"/>
<text font-family="'Droid Sans'" x="86.0499" stroke="none" text-anchor="middle" class="text" stroke-width="0" font-size="2.5" y="70.95" xmlns="http://www.w3.org/2000/svg" fill="#8c8c8c">19</text>
<text font-family="'Droid Sans'" x="77.4499" stroke="none" text-anchor="end" class="text" stroke-width="0" font-size="3.49999" y="72.6999" xmlns="http://www.w3.org/2000/svg" fill="#8c8c8c">D13</text>
<g width="0.699999" x="93.2499" height="0.699999" id="connector18terminal" stroke="none" class="terminal" y="71.6499" stroke-width="0" xmlns="http://www.w3.org/2000/svg" fill="none"/>
<line x1="78.8499" x2="93.2499" id="connector17pin" stroke="#787878" class="pin" stroke-width="0.699999" xmlns="http://www.w3.org/2000/svg" y1="79.2" fill="none" stroke-linecap="round" y2="79.2"/>
<text font-family="'Droid Sans'" x="86.0499" stroke="none" text-anchor="middle" class="text" stroke-width="0" font-size="2.5" y="78.15" xmlns="http://www.w3.org/2000/svg" fill="#8c8c8c">18</text>
<text font-family="'Droid Sans'" x="77.4499" stroke="none" text-anchor="end" class="text" stroke-width="0" font-size="3.49999" y="79.8999" xmlns="http://www.w3.org/2000/svg" fill="#8c8c8c">D12</text>
<g width="0.699999" x="93.2499" height="0.699999" id="connector17terminal" stroke="none" class="terminal" y="78.8499" stroke-width="0" xmlns="http://www.w3.org/2000/svg" fill="none"/>
<line x1="78.8499" x2="93.2499" id="connector16pin" stroke="#787878" class="pin" stroke-width="0.699999" xmlns="http://www.w3.org/2000/svg" y1="86.4" fill="none" stroke-linecap="round" y2="86.4"/>
<text font-family="'Droid Sans'" x="86.0499" stroke="none" text-anchor="middle" class="text" stroke-width="0" font-size="2.5" y="85.35" xmlns="http://www.w3.org/2000/svg" fill="#8c8c8c">17</text>
<text font-family="'Droid Sans'" x="77.4499" stroke="none" text-anchor="end" class="text" stroke-width="0" font-size="3.49999" y="87.0999" xmlns="http://www.w3.org/2000/svg" fill="#8c8c8c">D11 (PWM)</text>
<g width="0.699999" x="93.2499" height="0.699999" id="connector16terminal" stroke="none" class="terminal" y="86.0499" stroke-width="0" xmlns="http://www.w3.org/2000/svg" fill="none"/>
<line x1="78.8499" x2="93.2499" id="connector15pin" stroke="#787878" class="pin" stroke-width="0.699999" xmlns="http://www.w3.org/2000/svg" y1="93.6" fill="none" stroke-linecap="round" y2="93.6"/>
<text font-family="'Droid Sans'" x="86.0499" stroke="none" text-anchor="middle" class="text" stroke-width="0" font-size="2.5" y="92.55" xmlns="http://www.w3.org/2000/svg" fill="#8c8c8c">16</text>
<text font-family="'Droid Sans'" x="77.4499" stroke="none" text-anchor="end" class="text" stroke-width="0" font-size="3.49999" y="94.2999" xmlns="http://www.w3.org/2000/svg" fill="#8c8c8c">D10 (PWM)</text>
<g width="0.699999" x="93.2499" height="0.699999" id="connector15terminal" stroke="none" class="terminal" y="93.2499" stroke-width="0" xmlns="http://www.w3.org/2000/svg" fill="none"/>
<line x1="78.8499" x2="93.2499" id="connector14pin" stroke="#787878" class="pin" stroke-width="0.699999" xmlns="http://www.w3.org/2000/svg" y1="100.8" fill="none" stroke-linecap="round" y2="100.8"/>
<text font-family="'Droid Sans'" x="86.0499" stroke="none" text-anchor="middle" class="text" stroke-width="0" font-size="2.5" y="99.75" xmlns="http://www.w3.org/2000/svg" fill="#8c8c8c">15</text>
<text font-family="'Droid Sans'" x="77.4499" stroke="none" text-anchor="end" class="text" stroke-width="0" font-size="3.49999" y="101.5" xmlns="http://www.w3.org/2000/svg" fill="#8c8c8c">D9 (PWM)</text>
<g width="0.699999" x="93.2499" height="0.699999" id="connector14terminal" stroke="none" class="terminal" y="100.45" stroke-width="0" xmlns="http://www.w3.org/2000/svg" fill="none"/>
<line x1="0.349999" x2="14.75" id="connector0pin" stroke="#787878" class="pin" stroke-width="0.699999" xmlns="http://www.w3.org/2000/svg" y1="7.2" fill="none" stroke-linecap="round" y2="7.2"/>
<text font-family="'Droid Sans'" x="7.54999" stroke="none" text-anchor="middle" class="text" stroke-width="0" font-size="2.5" y="6.14999" xmlns="http://www.w3.org/2000/svg" fill="#8c8c8c">1</text>
<text font-family="'Droid Sans'" x="16.15" stroke="none" text-anchor="start" class="text" stroke-width="0" font-size="3.49999" y="7.89999" xmlns="http://www.w3.org/2000/svg" fill="#8c8c8c">RESET</text>
<g width="0.699999" x="-0.349999" height="0.699999" id="connector0terminal" stroke="none" class="terminal" y="6.85001" stroke-width="0" xmlns="http://www.w3.org/2000/svg" fill="none"/>
<line x1="0.349999" x2="14.75" id="connector1pin" stroke="#787878" class="pin" stroke-width="0.699999" xmlns="http://www.w3.org/2000/svg" y1="14.4" fill="none" stroke-linecap="round" y2="14.4"/>
<text font-family="'Droid Sans'" x="7.54999" stroke="none" text-anchor="middle" class="text" stroke-width="0" font-size="2.5" y="13.35" xmlns="http://www.w3.org/2000/svg" fill="#8c8c8c">2</text>
<text font-family="'Droid Sans'" x="16.15" stroke="none" text-anchor="start" class="text" stroke-width="0" font-size="3.49999" y="15.1" xmlns="http://www.w3.org/2000/svg" fill="#8c8c8c">D0 (RX)</text>
<g width="0.699999" x="-0.349999" height="0.699999" id="connector1terminal" stroke="none" class="terminal" y="14.05" stroke-width="0" xmlns="http://www.w3.org/2000/svg" fill="none"/>
<line x1="0.349999" x2="14.75" id="connector2pin" stroke="#787878" class="pin" stroke-width="0.699999" xmlns="http://www.w3.org/2000/svg" y1="21.6" fill="none" stroke-linecap="round" y2="21.6"/>
<text font-family="'Droid Sans'" x="7.54999" stroke="none" text-anchor="middle" class="text" stroke-width="0" font-size="2.5" y="20.55" xmlns="http://www.w3.org/2000/svg" fill="#8c8c8c">3</text>
<text font-family="'Droid Sans'" x="16.15" stroke="none" text-anchor="start" class="text" stroke-width="0" font-size="3.49999" y="22.3" xmlns="http://www.w3.org/2000/svg" fill="#8c8c8c">D1 (TX)</text>
<g width="0.699999" x="-0.349999" height="0.699999" id="connector2terminal" stroke="none" class="terminal" y="21.25" stroke-width="0" xmlns="http://www.w3.org/2000/svg" fill="none"/>
<line x1="0.349999" x2="14.75" id="connector3pin" stroke="#787878" class="pin" stroke-width="0.699999" xmlns="http://www.w3.org/2000/svg" y1="28.8" fill="none" stroke-linecap="round" y2="28.8"/>
<text font-family="'Droid Sans'" x="7.54999" stroke="none" text-anchor="middle" class="text" stroke-width="0" font-size="2.5" y="27.75" xmlns="http://www.w3.org/2000/svg" fill="#8c8c8c">4</text>
<text font-family="'Droid Sans'" x="16.15" stroke="none" text-anchor="start" class="text" stroke-width="0" font-size="3.49999" y="29.4999" xmlns="http://www.w3.org/2000/svg" fill="#8c8c8c">D2</text>
<g width="0.699999" x="-0.349999" height="0.699999" id="connector3terminal" stroke="none" class="terminal" y="28.4499" stroke-width="0" xmlns="http://www.w3.org/2000/svg" fill="none"/>
<line x1="0.349999" x2="14.75" id="connector4pin" stroke="#787878" class="pin" stroke-width="0.699999" xmlns="http://www.w3.org/2000/svg" y1="36" fill="none" stroke-linecap="round" y2="36"/>
<text font-family="'Droid Sans'" x="7.54999" stroke="none" text-anchor="middle" class="text" stroke-width="0" font-size="2.5" y="34.95" xmlns="http://www.w3.org/2000/svg" fill="#8c8c8c">5</text>
<text font-family="'Droid Sans'" x="16.15" stroke="none" text-anchor="start" class="text" stroke-width="0" font-size="3.49999" y="36.6999" xmlns="http://www.w3.org/2000/svg" fill="#8c8c8c">D3 (PWM)</text>
<g width="0.699999" x="-0.349999" height="0.699999" id="connector4terminal" stroke="none" class="terminal" y="35.6499" stroke-width="0" xmlns="http://www.w3.org/2000/svg" fill="none"/>
<line x1="0.349999" x2="14.75" id="connector5pin" stroke="#787878" class="pin" stroke-width="0.699999" xmlns="http://www.w3.org/2000/svg" y1="43.2" fill="none" stroke-linecap="round" y2="43.2"/>
<text font-family="'Droid Sans'" x="7.54999" stroke="none" text-anchor="middle" class="text" stroke-width="0" font-size="2.5" y="42.15" xmlns="http://www.w3.org/2000/svg" fill="#8c8c8c">6</text>
<text font-family="'Droid Sans'" x="16.15" stroke="none" text-anchor="start" class="text" stroke-width="0" font-size="3.49999" y="43.8999" xmlns="http://www.w3.org/2000/svg" fill="#8c8c8c">D4</text>
<g width="0.699999" x="-0.349999" height="0.699999" id="connector5terminal" stroke="none" class="terminal" y="42.8499" stroke-width="0" xmlns="http://www.w3.org/2000/svg" fill="none"/>
<line x1="0.349999" x2="14.75" id="connector6pin" stroke="#787878" class="pin" stroke-width="0.699999" xmlns="http://www.w3.org/2000/svg" y1="50.4" fill="none" stroke-linecap="round" y2="50.4"/>
<text font-family="'Droid Sans'" x="7.54999" stroke="none" text-anchor="middle" class="text" stroke-width="0" font-size="2.5" y="49.35" xmlns="http://www.w3.org/2000/svg" fill="#8c8c8c">7</text>
<text font-family="'Droid Sans'" x="16.15" stroke="none" text-anchor="start" class="text" stroke-width="0" font-size="3.49999" y="51.0999" xmlns="http://www.w3.org/2000/svg" fill="#8c8c8c">VCC</text>
<g width="0.699999" x="-0.349999" height="0.699999" id="connector6terminal" stroke="none" class="terminal" y="50.0499" stroke-width="0" xmlns="http://www.w3.org/2000/svg" fill="none"/>
<line x1="0.349999" x2="14.75" id="connector7pin" stroke="#787878" class="pin" stroke-width="0.699999" xmlns="http://www.w3.org/2000/svg" y1="57.6" fill="none" stroke-linecap="round" y2="57.6"/>
<text font-family="'Droid Sans'" x="7.54999" stroke="none" text-anchor="middle" class="text" stroke-width="0" font-size="2.5" y="56.55" xmlns="http://www.w3.org/2000/svg" fill="#8c8c8c">8</text>
<text font-family="'Droid Sans'" x="16.15" stroke="none" text-anchor="start" class="text" stroke-width="0" font-size="3.49999" y="58.2999" xmlns="http://www.w3.org/2000/svg" fill="#8c8c8c">GND</text>
<g width="0.699999" x="-0.349999" height="0.699999" id="connector7terminal" stroke="none" class="terminal" y="57.2499" stroke-width="0" xmlns="http://www.w3.org/2000/svg" fill="none"/>
<line x1="0.349999" x2="14.75" id="connector8pin" stroke="#787878" class="pin" stroke-width="0.699999" xmlns="http://www.w3.org/2000/svg" y1="64.8" fill="none" stroke-linecap="round" y2="64.8"/>
<text font-family="'Droid Sans'" x="7.54999" stroke="none" text-anchor="middle" class="text" stroke-width="0" font-size="2.5" y="63.75" xmlns="http://www.w3.org/2000/svg" fill="#8c8c8c">9</text>
<text font-family="'Droid Sans'" x="16.15" stroke="none" text-anchor="start" class="text" stroke-width="0" font-size="3.49999" y="65.4999" xmlns="http://www.w3.org/2000/svg" fill="#8c8c8c">XLAT1</text>
<g width="0.699999" x="-0.349999" height="0.699999" id="connector8terminal" stroke="none" class="terminal" y="64.4499" stroke-width="0" xmlns="http://www.w3.org/2000/svg" fill="none"/>
<line x1="0.349999" x2="14.75" id="connector9pin" stroke="#787878" class="pin" stroke-width="0.699999" xmlns="http://www.w3.org/2000/svg" y1="72" fill="none" stroke-linecap="round" y2="72"/>
<text font-family="'Droid Sans'" x="7.54999" stroke="none" text-anchor="middle" class="text" stroke-width="0" font-size="2.5" y="70.95" xmlns="http://www.w3.org/2000/svg" fill="#8c8c8c">10</text>
<text font-family="'Droid Sans'" x="16.15" stroke="none" text-anchor="start" class="text" stroke-width="0" font-size="3.49999" y="72.6999" xmlns="http://www.w3.org/2000/svg" fill="#8c8c8c">XLAT2</text>
<g width="0.699999" x="-0.349999" height="0.699999" id="connector9terminal" stroke="none" class="terminal" y="71.6499" stroke-width="0" xmlns="http://www.w3.org/2000/svg" fill="none"/>
<line x1="0.349999" x2="14.75" id="connector10pin" stroke="#787878" class="pin" stroke-width="0.699999" xmlns="http://www.w3.org/2000/svg" y1="79.2" fill="none" stroke-linecap="round" y2="79.2"/>
<text font-family="'Droid Sans'" x="7.54999" stroke="none" text-anchor="middle" class="text" stroke-width="0" font-size="2.5" y="78.15" xmlns="http://www.w3.org/2000/svg" fill="#8c8c8c">11</text>
<text font-family="'Droid Sans'" x="16.15" stroke="none" text-anchor="start" class="text" stroke-width="0" font-size="3.49999" y="79.8999" xmlns="http://www.w3.org/2000/svg" fill="#8c8c8c">D5 (PWM)</text>
<g width="0.699999" x="-0.349999" height="0.699999" id="connector10terminal" stroke="none" class="terminal" y="78.8499" stroke-width="0" xmlns="http://www.w3.org/2000/svg" fill="none"/>
<line x1="0.349999" x2="14.75" id="connector11pin" stroke="#787878" class="pin" stroke-width="0.699999" xmlns="http://www.w3.org/2000/svg" y1="86.4" fill="none" stroke-linecap="round" y2="86.4"/>
<text font-family="'Droid Sans'" x="7.54999" stroke="none" text-anchor="middle" class="text" stroke-width="0" font-size="2.5" y="85.35" xmlns="http://www.w3.org/2000/svg" fill="#8c8c8c">12</text>
<text font-family="'Droid Sans'" x="16.15" stroke="none" text-anchor="start" class="text" stroke-width="0" font-size="3.49999" y="87.0999" xmlns="http://www.w3.org/2000/svg" fill="#8c8c8c">D6 (PWM)</text>
<g width="0.699999" x="-0.349999" height="0.699999" id="connector11terminal" stroke="none" class="terminal" y="86.0499" stroke-width="0" xmlns="http://www.w3.org/2000/svg" fill="none"/>
<line x1="0.349999" x2="14.75" id="connector12pin" stroke="#787878" class="pin" stroke-width="0.699999" xmlns="http://www.w3.org/2000/svg" y1="93.6" fill="none" stroke-linecap="round" y2="93.6"/>
<text font-family="'Droid Sans'" x="7.54999" stroke="none" text-anchor="middle" class="text" stroke-width="0" font-size="2.5" y="92.55" xmlns="http://www.w3.org/2000/svg" fill="#8c8c8c">13</text>
<text font-family="'Droid Sans'" x="16.15" stroke="none" text-anchor="start" class="text" stroke-width="0" font-size="3.49999" y="94.2999" xmlns="http://www.w3.org/2000/svg" fill="#8c8c8c">D7</text>
<g width="0.699999" x="-0.349999" height="0.699999" id="connector12terminal" stroke="none" class="terminal" y="93.2499" stroke-width="0" xmlns="http://www.w3.org/2000/svg" fill="none"/>
<line x1="0.349999" x2="14.75" id="connector13pin" stroke="#787878" class="pin" stroke-width="0.699999" xmlns="http://www.w3.org/2000/svg" y1="100.8" fill="none" stroke-linecap="round" y2="100.8"/>
<text font-family="'Droid Sans'" x="7.54999" stroke="none" text-anchor="middle" class="text" stroke-width="0" font-size="2.5" y="99.75" xmlns="http://www.w3.org/2000/svg" fill="#8c8c8c">14</text>
<text font-family="'Droid Sans'" x="16.15" stroke="none" text-anchor="start" class="text" stroke-width="0" font-size="3.49999" y="101.5" xmlns="http://www.w3.org/2000/svg" fill="#8c8c8c">D8</text>
<g width="0.699999" x="-0.349999" height="0.699999" id="connector13terminal" stroke="none" class="terminal" y="100.45" stroke-width="0" xmlns="http://www.w3.org/2000/svg" fill="none"/>
<text font-family="'Droid Sans'" x="47.2499" id="label" stroke="none" text-anchor="middle" class="text" stroke-width="0" font-size="4.25001" y="52.1833" xmlns="http://www.w3.org/2000/svg" fill="#000000">atmega328</text>
</g>
</g></g><g partID='57860'><g transform='translate(192.85,88.9038)' ><g id="schematic" xmlns="http://www.w3.org/2000/svg">
<line x1="7.55002" x2="8.63003" stroke="#000000" class="other" stroke-width="0.432002" xmlns="http://www.w3.org/2000/svg" y1="3.096" stroke-linecap="round" y2="0.216"/>
<line x1="8.63003" x2="10.43" stroke="#000000" class="other" stroke-width="0.432002" xmlns="http://www.w3.org/2000/svg" y1="0.216" stroke-linecap="round" y2="5.976"/>
<line x1="10.43" x2="12.23" stroke="#000000" class="other" stroke-width="0.432002" xmlns="http://www.w3.org/2000/svg" y1="5.976" stroke-linecap="round" y2="0.216"/>
<line x1="12.23" x2="14.03" stroke="#000000" class="other" stroke-width="0.432002" xmlns="http://www.w3.org/2000/svg" y1="0.216" stroke-linecap="round" y2="5.976"/>
<line x1="14.03" x2="15.8301" stroke="#000000" class="other" stroke-width="0.432002" xmlns="http://www.w3.org/2000/svg" y1="5.976" stroke-linecap="round" y2="0.216"/>
<line x1="15.8301" x2="17.6301" stroke="#000000" class="other" stroke-width="0.432002" xmlns="http://www.w3.org/2000/svg" y1="0.216" stroke-linecap="round" y2="5.976"/>
<line x1="17.6301" x2="19.4301" stroke="#000000" class="other" stroke-width="0.432002" xmlns="http://www.w3.org/2000/svg" y1="5.976" stroke-linecap="round" y2="0.216"/>
<line x1="19.4301" x2="21.2301" stroke="#000000" class="other" stroke-width="0.432002" xmlns="http://www.w3.org/2000/svg" y1="0.216" stroke-linecap="round" y2="5.976"/>
<line x1="21.2301" x2="21.9501" stroke="#000000" class="other" stroke-width="0.432002" xmlns="http://www.w3.org/2000/svg" y1="5.976" stroke-linecap="round" y2="3.096"/>
<line x1="29.1502" x2="21.9501" id="connector1pin" connectorname="2" stroke="#787878" class="pin" stroke-width="0.700001" xmlns="http://www.w3.org/2000/svg" y1="3.096" stroke-linecap="round" y2="3.096"/>
<g width="0.000283466" x="29.1502" height="0.000283465" id="connector1terminal" stroke="none" class="terminal" y="3.096" stroke-width="0" xmlns="http://www.w3.org/2000/svg" fill="none"/>
<text font-family="'Droid Sans'" x="25.5501" stroke="none" text-anchor="middle" class="text" stroke-width="0" font-size="2.50001" y="2.046" xmlns="http://www.w3.org/2000/svg" fill="#8c8c8c">2</text>
<line x1="0.350001" x2="7.55002" id="connector0pin" connectorname="1" stroke="#787878" class="pin" stroke-width="0.700001" xmlns="http://www.w3.org/2000/svg" y1="3.096" stroke-linecap="round" y2="3.096"/>
<g width="0.000283466" x="0.350001" height="0.000283465" id="connector0terminal" stroke="none" class="terminal" y="3.096" stroke-width="0" xmlns="http://www.w3.org/2000/svg" fill="none"/>
<text font-family="'Droid Sans'" x="3.95001" stroke="none" text-anchor="middle" class="text" stroke-width="0" font-size="2.50001" y="2.046" xmlns="http://www.w3.org/2000/svg" fill="#8c8c8c">1</text>
</g>
</g></g><g partID='57830'><g transform='translate(192.85,81.7038)' ><g id="schematic" xmlns="http://www.w3.org/2000/svg">
<line x1="7.55002" x2="8.63003" stroke="#000000" class="other" stroke-width="0.432002" xmlns="http://www.w3.org/2000/svg" y1="3.096" stroke-linecap="round" y2="0.216"/>
<line x1="8.63003" x2="10.43" stroke="#000000" class="other" stroke-width="0.432002" xmlns="http://www.w3.org/2000/svg" y1="0.216" stroke-linecap="round" y2="5.976"/>
<line x1="10.43" x2="12.23" stroke="#000000" class="other" stroke-width="0.432002" xmlns="http://www.w3.org/2000/svg" y1="5.976" stroke-linecap="round" y2="0.216"/>
<line x1="12.23" x2="14.03" stroke="#000000" class="other" stroke-width="0.432002" xmlns="http://www.w3.org/2000/svg" y1="0.216" stroke-linecap="round" y2="5.976"/>
<line x1="14.03" x2="15.8301" stroke="#000000" class="other" stroke-width="0.432002" xmlns="http://www.w3.org/2000/svg" y1="5.976" stroke-linecap="round" y2="0.216"/>
<line x1="15.8301" x2="17.6301" stroke="#000000" class="other" stroke-width="0.432002" xmlns="http://www.w3.org/2000/svg" y1="0.216" stroke-linecap="round" y2="5.976"/>
<line x1="17.6301" x2="19.4301" stroke="#000000" class="other" stroke-width="0.432002" xmlns="http://www.w3.org/2000/svg" y1="5.976" stroke-linecap="round" y2="0.216"/>
<line x1="19.4301" x2="21.2301" stroke="#000000" class="other" stroke-width="0.432002" xmlns="http://www.w3.org/2000/svg" y1="0.216" stroke-linecap="round" y2="5.976"/>
<line x1="21.2301" x2="21.9501" stroke="#000000" class="other" stroke-width="0.432002" xmlns="http://www.w3.org/2000/svg" y1="5.976" stroke-linecap="round" y2="3.096"/>
<line x1="29.1502" x2="21.9501" id="connector1pin" connectorname="2" stroke="#787878" class="pin" stroke-width="0.700001" xmlns="http://www.w3.org/2000/svg" y1="3.096" stroke-linecap="round" y2="3.096"/>
<g width="0.000283466" x="29.1502" height="0.000283465" id="connector1terminal" stroke="none" class="terminal" y="3.096" stroke-width="0" xmlns="http://www.w3.org/2000/svg" fill="none"/>
<text font-family="'Droid Sans'" x="25.5501" stroke="none" text-anchor="middle" class="text" stroke-width="0" font-size="2.50001" y="2.046" xmlns="http://www.w3.org/2000/svg" fill="#8c8c8c">2</text>
<line x1="0.350001" x2="7.55002" id="connector0pin" connectorname="1" stroke="#787878" class="pin" stroke-width="0.700001" xmlns="http://www.w3.org/2000/svg" y1="3.096" stroke-linecap="round" y2="3.096"/>
<g width="0.000283466" x="0.350001" height="0.000283465" id="connector0terminal" stroke="none" class="terminal" y="3.096" stroke-width="0" xmlns="http://www.w3.org/2000/svg" fill="none"/>
<text font-family="'Droid Sans'" x="3.95001" stroke="none" text-anchor="middle" class="text" stroke-width="0" font-size="2.50001" y="2.046" xmlns="http://www.w3.org/2000/svg" fill="#8c8c8c">1</text>
</g>
</g></g><g partID='57880'><g transform='translate(236.184,101.9)' ><g transform='matrix(0,-1,1,0,0,0)'  ><g id="schematic">
<g>
<path d="M13.5,14.966L9.9,14.966c-0.193,0,-0.35,-0.156,-0.35,-0.35s0.156,-0.35,0.35,-0.35L13.5,14.266c0.193,0,0.35,0.156,0.35,0.35S13.694,14.966,13.5,14.966z"/>
</g>
<g>
<path d="M9.9,14.966L6.3,14.966c-0.193,0,-0.35,-0.156,-0.35,-0.35s0.157,-0.35,0.35,-0.35l3.6,0c0.193,0,0.35,0.156,0.35,0.35S10.093,14.966,9.9,14.966z"/>
</g>
<g>
<polygon points="9.9,14.616,6.3,7.416,9.9,7.416,13.5,7.416" fill="#FFFFFF"/>
<path d="M9.9,15.398L5.734,7.066l8.333,0L9.9,15.398zM6.866,7.766L9.9,13.834l3.034,-6.068L6.866,7.766z"/>
</g>
<g>
<path d="M9.9,14.841c-0.124,0,-0.225,-0.101,-0.225,-0.225l0,-7.2c0,-0.124,0.101,-0.225,0.225,-0.225s0.225,0.101,0.225,0.225l0,7.2C10.124,14.74,10.024,14.841,9.9,14.841z"/>
</g>
<g>
<path d="M1.8,12.141c-0.058,0,-0.115,-0.021,-0.159,-0.065c-0.088,-0.088,-0.088,-0.23,0,-0.318l2.34,-2.341c0.088,-0.088,0.23,-0.088,0.318,0s0.088,0.23,0,0.318l-2.34,2.341C1.915,12.12,1.858,12.141,1.8,12.141z"/>
</g>
<g>
<path d="M2.16,15.381c-0.058,0,-0.115,-0.021,-0.159,-0.065c-0.088,-0.088,-0.088,-0.23,0,-0.318l2.34,-2.34c0.088,-0.088,0.23,-0.088,0.318,0s0.088,0.23,0,0.318l-2.34,2.34C2.276,15.359,2.218,15.381,2.16,15.381z"/>
</g>
<g id="connector0pin">
<path d="M9.9,22.166c-0.193,0,-0.35,-0.156,-0.35,-0.35l0,-7.2c0,-0.193,0.156,-0.35,0.35,-0.35s0.35,0.156,0.35,0.35l0,7.2C10.249,22.01,10.093,22.166,9.9,22.166z" fill="#787878"/>
</g>
<g id="connector0terminal">
<rect width="0.001" x="9.9" height="0.001" y="21.816" fill="none"/>
</g>
<g transform="matrix(1, 0, 0, 1, 3.429, 6.4262)">
<g>
<g transform="rotate(270)">
<g>
<g enable-background="new    ">
<path d="M-11.647,5.54l-0.891,0L-12.538,5.388l0.342,-0.372c0.049,-0.053,0.093,-0.101,0.131,-0.145s0.071,-0.086,0.099,-0.128c0.026,-0.042,0.047,-0.084,0.062,-0.125c0.015,-0.043,0.021,-0.088,0.021,-0.138c0,-0.038,-0.005,-0.072,-0.017,-0.102s-0.027,-0.054,-0.047,-0.075c-0.021,-0.02,-0.045,-0.035,-0.073,-0.046s-0.06,-0.016,-0.094,-0.016c-0.062,0,-0.118,0.013,-0.167,0.038c-0.051,0.024,-0.098,0.057,-0.143,0.096l-0.1,-0.116c0.025,-0.023,0.055,-0.046,0.084,-0.065c0.029,-0.021,0.063,-0.039,0.097,-0.054s0.071,-0.026,0.109,-0.036c0.038,-0.008,0.079,-0.013,0.121,-0.013c0.063,0,0.119,0.009,0.169,0.026c0.051,0.018,0.094,0.043,0.129,0.076c0.035,0.032,0.063,0.072,0.082,0.119c0.019,0.048,0.028,0.101,0.028,0.16c0,0.056,-0.009,0.108,-0.026,0.158c-0.017,0.05,-0.041,0.1,-0.07,0.148c-0.031,0.048,-0.066,0.097,-0.109,0.146c-0.041,0.049,-0.087,0.1,-0.136,0.152L-12.32,5.37l0,0.008l0.673,0L-11.647,5.54z" fill="#787878"/>
</g>
</g>
</g>
</g>
</g>
<g id="connector1pin">
<path d="M9.9,7.766c-0.193,0,-0.35,-0.157,-0.35,-0.35l0,-7.2c0,-0.193,0.156,-0.35,0.35,-0.35s0.35,0.157,0.35,0.35l0,7.2C10.249,7.609,10.093,7.766,9.9,7.766z" fill="#787878"/>
</g>
<g id="connector1terminal">
<polygon points="9.9,0.216,9.901,0.216,9.901,0.216" fill="none"/>
</g>
<g transform="matrix(1, 0, 0, 1, 3.429, 1.3462)">
<g>
<g transform="rotate(270)">
<g>
<g enable-background="new    ">
<path d="M-2.616,5.54l-0.172,0L-2.788,4.648c0,-0.028,0,-0.058,0,-0.09s0.001,-0.063,0.002,-0.095c0.001,-0.032,0.002,-0.063,0.003,-0.092c0.001,-0.028,0.002,-0.054,0.002,-0.076c-0.011,0.012,-0.021,0.021,-0.029,0.03s-0.017,0.017,-0.026,0.024s-0.018,0.016,-0.028,0.025c-0.01,0.008,-0.021,0.019,-0.035,0.03l-0.145,0.118l-0.094,-0.12l0.374,-0.292l0.146,0L-2.618,5.54z" fill="#787878"/>
</g>
</g>
</g>
</g>
</g>
<g>
<path d="M0.18,13.536l1.08,-2.521l1.44,1.438L0.18,13.536z"/>
</g>
<g>
<path d="M0.54,16.776l1.08,-2.521l1.438,1.438L0.54,16.776z"/>
</g>
</g>
</g></g></g><g partID='57980'><g transform='translate(250.584,94.7004)' ><g transform='matrix(0,-1,1,0,0,0)'  ><g id="schematic">
<g>
<path d="M13.5,14.966L9.9,14.966c-0.193,0,-0.35,-0.156,-0.35,-0.35s0.156,-0.35,0.35,-0.35L13.5,14.266c0.193,0,0.35,0.156,0.35,0.35S13.694,14.966,13.5,14.966z"/>
</g>
<g>
<path d="M9.9,14.966L6.3,14.966c-0.193,0,-0.35,-0.156,-0.35,-0.35s0.157,-0.35,0.35,-0.35l3.6,0c0.193,0,0.35,0.156,0.35,0.35S10.093,14.966,9.9,14.966z"/>
</g>
<g>
<polygon points="9.9,14.616,6.3,7.416,9.9,7.416,13.5,7.416" fill="#FFFFFF"/>
<path d="M9.9,15.398L5.734,7.066l8.333,0L9.9,15.398zM6.866,7.766L9.9,13.834l3.034,-6.068L6.866,7.766z"/>
</g>
<g>
<path d="M9.9,14.841c-0.124,0,-0.225,-0.101,-0.225,-0.225l0,-7.2c0,-0.124,0.101,-0.225,0.225,-0.225s0.225,0.101,0.225,0.225l0,7.2C10.124,14.74,10.024,14.841,9.9,14.841z"/>
</g>
<g>
<path d="M1.8,12.141c-0.058,0,-0.115,-0.021,-0.159,-0.065c-0.088,-0.088,-0.088,-0.23,0,-0.318l2.34,-2.341c0.088,-0.088,0.23,-0.088,0.318,0s0.088,0.23,0,0.318l-2.34,2.341C1.915,12.12,1.858,12.141,1.8,12.141z"/>
</g>
<g>
<path d="M2.16,15.381c-0.058,0,-0.115,-0.021,-0.159,-0.065c-0.088,-0.088,-0.088,-0.23,0,-0.318l2.34,-2.34c0.088,-0.088,0.23,-0.088,0.318,0s0.088,0.23,0,0.318l-2.34,2.34C2.276,15.359,2.218,15.381,2.16,15.381z"/>
</g>
<g id="connector0pin">
<path d="M9.9,22.166c-0.193,0,-0.35,-0.156,-0.35,-0.35l0,-7.2c0,-0.193,0.156,-0.35,0.35,-0.35s0.35,0.156,0.35,0.35l0,7.2C10.249,22.01,10.093,22.166,9.9,22.166z" fill="#787878"/>
</g>
<g id="connector0terminal">
<rect width="0.001" x="9.9" height="0.001" y="21.816" fill="none"/>
</g>
<g transform="matrix(1, 0, 0, 1, 3.429, 6.4262)">
<g>
<g transform="rotate(270)">
<g>
<g enable-background="new    ">
<path d="M-11.647,5.54l-0.891,0L-12.538,5.388l0.342,-0.372c0.049,-0.053,0.093,-0.101,0.131,-0.145s0.071,-0.086,0.099,-0.128c0.026,-0.042,0.047,-0.084,0.062,-0.125c0.015,-0.043,0.021,-0.088,0.021,-0.138c0,-0.038,-0.005,-0.072,-0.017,-0.102s-0.027,-0.054,-0.047,-0.075c-0.021,-0.02,-0.045,-0.035,-0.073,-0.046s-0.06,-0.016,-0.094,-0.016c-0.062,0,-0.118,0.013,-0.167,0.038c-0.051,0.024,-0.098,0.057,-0.143,0.096l-0.1,-0.116c0.025,-0.023,0.055,-0.046,0.084,-0.065c0.029,-0.021,0.063,-0.039,0.097,-0.054s0.071,-0.026,0.109,-0.036c0.038,-0.008,0.079,-0.013,0.121,-0.013c0.063,0,0.119,0.009,0.169,0.026c0.051,0.018,0.094,0.043,0.129,0.076c0.035,0.032,0.063,0.072,0.082,0.119c0.019,0.048,0.028,0.101,0.028,0.16c0,0.056,-0.009,0.108,-0.026,0.158c-0.017,0.05,-0.041,0.1,-0.07,0.148c-0.031,0.048,-0.066,0.097,-0.109,0.146c-0.041,0.049,-0.087,0.1,-0.136,0.152L-12.32,5.37l0,0.008l0.673,0L-11.647,5.54z" fill="#787878"/>
</g>
</g>
</g>
</g>
</g>
<g id="connector1pin">
<path d="M9.9,7.766c-0.193,0,-0.35,-0.157,-0.35,-0.35l0,-7.2c0,-0.193,0.156,-0.35,0.35,-0.35s0.35,0.157,0.35,0.35l0,7.2C10.249,7.609,10.093,7.766,9.9,7.766z" fill="#787878"/>
</g>
<g id="connector1terminal">
<polygon points="9.9,0.216,9.901,0.216,9.901,0.216" fill="none"/>
</g>
<g transform="matrix(1, 0, 0, 1, 3.429, 1.3462)">
<g>
<g transform="rotate(270)">
<g>
<g enable-background="new    ">
<path d="M-2.616,5.54l-0.172,0L-2.788,4.648c0,-0.028,0,-0.058,0,-0.09s0.001,-0.063,0.002,-0.095c0.001,-0.032,0.002,-0.063,0.003,-0.092c0.001,-0.028,0.002,-0.054,0.002,-0.076c-0.011,0.012,-0.021,0.021,-0.029,0.03s-0.017,0.017,-0.026,0.024s-0.018,0.016,-0.028,0.025c-0.01,0.008,-0.021,0.019,-0.035,0.03l-0.145,0.118l-0.094,-0.12l0.374,-0.292l0.146,0L-2.618,5.54z" fill="#787878"/>
</g>
</g>
</g>
</g>
</g>
<g>
<path d="M0.18,13.536l1.08,-2.521l1.44,1.438L0.18,13.536z"/>
</g>
<g>
<path d="M0.54,16.776l1.08,-2.521l1.438,1.438L0.54,16.776z"/>
</g>
</g>
</g></g></g><g partID='58310'><g transform='translate(279.599,105.923)' ><g id="schematic" xmlns="http://www.w3.org/2000/svg">
<path id="connector0pin" stroke="#787878" stroke-width="0.75" xmlns="http://www.w3.org/2000/svg" d="M7.201,7.575l0,-7.2" fill="none" stroke-linecap="round"/>
<g width="0.945" x="6.728" height="0.953" id="connector0terminal" y="0" xmlns="http://www.w3.org/2000/svg" fill="none"/>
<path id="path4098" stroke="#000000" stroke-width="0.9" xmlns="http://www.w3.org/2000/svg" d="M0.5,7.711L13.9,7.711" fill="none" stroke-linecap="round"/>
<path id="path4100" stroke="#000000" stroke-width="0.9" xmlns="http://www.w3.org/2000/svg" d="M2.732,10.456l8.935,0" fill="none" stroke-linecap="round"/>
<path id="path4102" stroke="#000000" stroke-width="0.9" xmlns="http://www.w3.org/2000/svg" d="M9.431,13.175L4.967,13.175" fill="none" stroke-linecap="round"/>
</g>
</g></g><g partID='59190'><g transform='translate(34.7995,62.7234)' ><g id="schematic" xmlns="http://www.w3.org/2000/svg">
<path id="connector0pin" stroke="#787878" stroke-width="0.75" xmlns="http://www.w3.org/2000/svg" d="M7.201,7.575l0,-7.2" fill="none" stroke-linecap="round"/>
<g width="0.945" x="6.728" height="0.953" id="connector0terminal" y="0" xmlns="http://www.w3.org/2000/svg" fill="none"/>
<path id="path4098" stroke="#000000" stroke-width="0.9" xmlns="http://www.w3.org/2000/svg" d="M0.5,7.711L13.9,7.711" fill="none" stroke-linecap="round"/>
<path id="path4100" stroke="#000000" stroke-width="0.9" xmlns="http://www.w3.org/2000/svg" d="M2.732,10.456l8.935,0" fill="none" stroke-linecap="round"/>
<path id="path4102" stroke="#000000" stroke-width="0.9" xmlns="http://www.w3.org/2000/svg" d="M9.431,13.175L4.967,13.175" fill="none" stroke-linecap="round"/>
</g>
</g></g><g partID='88590'><g transform='translate(34.821,16.3919)' ><g transform='matrix(-1,0,0,1,0,0)'  ><g id="schematic" xmlns="http://www.w3.org/2000/svg">
<line x1="0.35" x2="7.346" id="connector0pin" stroke-linejoin="round" stroke="#000000" stroke-width="0.7" xmlns="http://www.w3.org/2000/svg" fill="none" stroke-linecap="round" y1="3.6" y2="3.6"/>
<g width="0.546" x="-0.252" height="0.208" id="connector0terminal" y="3.504" xmlns="http://www.w3.org/2000/svg" fill="none"/>
<polyline stroke-linejoin="round" stroke="#000000" stroke-width="0.7" xmlns="http://www.w3.org/2000/svg" points="14.1,5.557,9.928,3.6,14.1,1.643" fill="none" stroke-linecap="round"/>
<line x1="10.11" x2="4.804" id="line" stroke-linejoin="round" stroke="#000000" stroke-width="0.7" xmlns="http://www.w3.org/2000/svg" fill="none" stroke-linecap="round" y1="3.6" y2="3.6"/>
<text font-family="'Droid Sans'" x="5.05" stroke="none" text-anchor="middle" class="text" stroke-width="0" font-size="2.5" y="2.58" xmlns="http://www.w3.org/2000/svg" fill="#8c8c8c">1</text>
<line x1="0.35" x2="7.346" id="connector1pin" stroke-linejoin="round" stroke="#000000" stroke-width="0.7" xmlns="http://www.w3.org/2000/svg" fill="none" stroke-linecap="round" y1="10.8" y2="10.8"/>
<g width="0.546" x="-0.252" height="0.208" id="connector1terminal" y="10.704" xmlns="http://www.w3.org/2000/svg" fill="none"/>
<polyline stroke-linejoin="round" stroke="#000000" stroke-width="0.7" xmlns="http://www.w3.org/2000/svg" points="14.1,12.757,9.928,10.8,14.1,8.843" fill="none" stroke-linecap="round"/>
<line x1="10.11" x2="4.804" id="line" stroke-linejoin="round" stroke="#000000" stroke-width="0.7" xmlns="http://www.w3.org/2000/svg" fill="none" stroke-linecap="round" y1="10.8" y2="10.8"/>
<text font-family="'Droid Sans'" x="5.05" stroke="none" text-anchor="middle" class="text" stroke-width="0" font-size="2.5" y="9.78" xmlns="http://www.w3.org/2000/svg" fill="#8c8c8c">2</text>
<line x1="0.35" x2="7.346" id="connector2pin" stroke-linejoin="round" stroke="#000000" stroke-width="0.7" xmlns="http://www.w3.org/2000/svg" fill="none" stroke-linecap="round" y1="18" y2="18"/>
<g width="0.546" x="-0.252" height="0.208" id="connector2terminal" y="17.904" xmlns="http://www.w3.org/2000/svg" fill="none"/>
<polyline stroke-linejoin="round" stroke="#000000" stroke-width="0.7" xmlns="http://www.w3.org/2000/svg" points="14.1,19.957,9.928,18,14.1,16.043" fill="none" stroke-linecap="round"/>
<line x1="10.11" x2="4.804" id="line" stroke-linejoin="round" stroke="#000000" stroke-width="0.7" xmlns="http://www.w3.org/2000/svg" fill="none" stroke-linecap="round" y1="18" y2="18"/>
<text font-family="'Droid Sans'" x="5.05" stroke="none" text-anchor="middle" class="text" stroke-width="0" font-size="2.5" y="16.98" xmlns="http://www.w3.org/2000/svg" fill="#8c8c8c">3</text>
<line x1="0.35" x2="7.346" id="connector3pin" stroke-linejoin="round" stroke="#000000" stroke-width="0.7" xmlns="http://www.w3.org/2000/svg" fill="none" stroke-linecap="round" y1="25.2" y2="25.2"/>
<g width="0.546" x="-0.252" height="0.208" id="connector3terminal" y="25.104" xmlns="http://www.w3.org/2000/svg" fill="none"/>
<polyline stroke-linejoin="round" stroke="#000000" stroke-width="0.7" xmlns="http://www.w3.org/2000/svg" points="14.1,27.157,9.928,25.2,14.1,23.243" fill="none" stroke-linecap="round"/>
<line x1="10.11" x2="4.804" id="line" stroke-linejoin="round" stroke="#000000" stroke-width="0.7" xmlns="http://www.w3.org/2000/svg" fill="none" stroke-linecap="round" y1="25.2" y2="25.2"/>
<text font-family="'Droid Sans'" x="5.05" stroke="none" text-anchor="middle" class="text" stroke-width="0" font-size="2.5" y="24.18" xmlns="http://www.w3.org/2000/svg" fill="#8c8c8c">4</text>
</g>
</g></g></g><g partID='73140'><g transform='translate(58.208,85.0529)' ><g transform='matrix(0,-1,1,0,0,0)'  ><g id="schematic">
<line x1="10.43" x2="14.75" id="connector1pin" stroke-miterlimit="10" stroke="#8C8C8C" stroke-width="0.75" fill="none" stroke-linecap="round" y1="5.4" y2="5.4"/>
<g width="0.894" x="14.206" height="0.734" id="connector1terminal" y="5.025" fill="none"/>
<line x1="0.35" x2="4.67" id="connector0pin" stroke-miterlimit="10" stroke="#8C8C8C" stroke-width="0.75" fill="none" stroke-linecap="round" y1="5.4" y2="5.4"/>
<g id="connector0terminal" points="1.05,5.775,0,5.775,0,5.072,1.05,5.056" fill="none"/>
<line x1="6.47" x2="6.47" stroke="#000000" stroke-width="0.9" fill="none" stroke-linecap="round" y1="1.08" y2="9.72"/>
<line x1="6.47" x2="8.63" stroke="#000000" stroke-width="0.9" fill="none" stroke-linecap="round" y1="9.72" y2="9.72"/>
<line x1="8.63" x2="8.63" stroke="#000000" stroke-width="0.9" fill="none" stroke-linecap="round" y1="9.72" y2="1.08"/>
<line x1="8.63" x2="6.47" stroke="#000000" stroke-width="0.9" fill="none" stroke-linecap="round" y1="1.08" y2="1.08"/>
<line x1="10.43" x2="10.43" stroke="#000000" stroke-width="0.9" fill="none" stroke-linecap="round" y1="0.36" y2="10.44"/>
<line x1="4.67" x2="4.67" stroke="#000000" stroke-width="0.9" fill="none" stroke-linecap="round" y1="0.36" y2="10.44"/>
<g transform="matrix(1, 0, 0, 1, 12.4036, 4.3486)">
<text font-family="'DroidSans'" font-size="2.5" fill="#8C8C8C">2</text>
</g>
<g transform="matrix(1, 0, 0, 1, 1.5364, 4.3486)">
<text font-family="'DroidSans'" font-size="2.5" fill="#8C8C8C">1</text>
</g>
</g>
</g></g></g><g partID='57910'><line stroke-linecap='round' stroke='#404040' x1='222' y1='84.7999' x2='222' y2='84.7999' stroke-width='0.699998' /></g><g partID='58010'><line stroke-linecap='round' stroke='#404040' x1='222' y1='84.7999' x2='250.8' y2='84.7999' stroke-width='0.699998' /></g><g partID='58080'><line stroke-linecap='round' stroke='#404040' x1='222' y1='91.9999' x2='236.4' y2='91.9999' stroke-width='0.699998' /></g><g partID='58340'><line stroke-linecap='round' stroke='#404040' x1='286.8' y1='106.4' x2='286.8' y2='91.9999' stroke-width='0.699998' /></g><circle  fill="black" cx="286.8" cy="106.4" r="1.44" stroke-width="0" stroke="none" /><g partID='59080'><line stroke-linecap='round' stroke='#404040' x1='286.8' y1='91.9999' x2='286.8' y2='91.9999' stroke-width='0.699998' /></g><g partID='58680'><line stroke-linecap='round' stroke='#404040' x1='286.8' y1='91.9999' x2='258' y2='91.9999' stroke-width='0.699998' /></g><circle  fill="black" cx="286.8" cy="91.9999" r="1.44" stroke-width="0" stroke="none" /><g partID='85550'><line stroke-linecap='round' stroke='#404040' x1='286.8' y1='84.7999' x2='272.4' y2='84.7999' stroke-width='0.699998' /></g><g partID='58790'><line stroke-linecap='round' stroke='#404040' x1='286.8' y1='91.9999' x2='286.8' y2='84.7999' stroke-width='0.699998' /></g><g partID='58550'><line stroke-linecap='round' stroke='#404040' x1='286.8' y1='106.4' x2='286.8' y2='91.9999' stroke-width='0.699998' /></g><circle  fill="black" cx="286.8" cy="106.4" r="1.44" stroke-width="0" stroke="none" /><g partID='84710'><line stroke-linecap='round' stroke='#404040' x1='286.8' y1='77.5999' x2='286.8' y2='55.9999' stroke-width='0.699998' /></g><g partID='85340'><line stroke-linecap='round' stroke='#404040' x1='286.8' y1='77.5999' x2='286.8' y2='77.5999' stroke-width='0.699998' /></g><g partID='58970'><line stroke-linecap='round' stroke='#404040' x1='286.8' y1='55.9999' x2='193.2' y2='55.9999' stroke-width='0.699998' /></g><g partID='58860'><line stroke-linecap='round' stroke='#404040' x1='286.8' y1='91.9999' x2='286.8' y2='77.5999' stroke-width='0.699998' /></g><g partID='59220'><line stroke-linecap='round' stroke='#404040' x1='99.6' y1='63.1999' x2='42' y2='63.1999' stroke-width='0.699998' /></g><circle  fill="black" cx="42" cy="63.1999" r="1.44" stroke-width="0" stroke="none" /><g partID='62700'><line stroke-linecap='round' stroke='#404040' x1='99.6' y1='20' x2='34.8' y2='19.9999' stroke-width='0.699998' /></g><g partID='62770'><line stroke-linecap='round' stroke='#404040' x1='99.6' y1='55.9999' x2='49.2' y2='55.9999' stroke-width='0.699998' /></g><g partID='63100'><line stroke-linecap='round' stroke='#404040' x1='49.2' y1='55.9999' x2='49.2' y2='27.1999' stroke-width='0.699998' /></g><g partID='63030'><line stroke-linecap='round' stroke='#404040' x1='49.2' y1='27.1999' x2='34.8' y2='27.1999' stroke-width='0.699998' /></g><g partID='62840'><line stroke-linecap='round' stroke='#404040' x1='42' y1='63.1999' x2='42' y2='34.3999' stroke-width='0.699998' /></g><circle  fill="black" cx="42" cy="63.1999" r="1.44" stroke-width="0" stroke="none" /><g partID='87750'><line stroke-linecap='round' stroke='#404040' x1='42' y1='34.3999' x2='34.8' y2='34.3999' stroke-width='0.699998' /></g><g partID='73400'><line stroke-linecap='round' stroke='#404040' x1='85.2' y1='77.5999' x2='85.2' y2='84.7999' stroke-width='0.699998' /></g><g partID='73330'><line stroke-linecap='round' stroke='#404040' x1='85.2' y1='84.7999' x2='63.6235' y2='84.5279' stroke-width='0.699998' /></g><g partID='73190'><line stroke-linecap='round' stroke='#404040' x1='99.6' y1='77.5999' x2='85.2' y2='77.5999' stroke-width='0.699998' /></g><g partID='73260'><line stroke-linecap='round' stroke='#404040' x1='99.6' y1='70.3999' x2='63.6' y2='70.3999' stroke-width='0.699998' /></g><g partID='57830' id='partLabel'><g transform='translate(203.31,69.5438)' ><g font-size='5' font-style='normal' font-weight='normal' fill='#000000' font-family="'DroidSans'" id='schematicLabel' fill-opacity='1' stroke='none' ><text x='0' y='3.75'>R1</text><text x='0' y='8.75'>150&#x3a9;</text></g></g></g><g partID='57860' id='partLabel'><g transform='translate(201.07,95.7838)' ><g font-size='5' font-style='normal' font-weight='normal' fill='#000000' font-family="'DroidSans'" id='schematicLabel' fill-opacity='1' stroke='none' ><text x='0' y='3.75'>R2</text><text x='0' y='8.75'>150&#x3a9;</text></g></g></g><g partID='57980' id='partLabel'><g transform='translate(258.904,121.66)' ><g transform='matrix(0,-1,1,0,0,0)'  ><g font-size='5' font-style='normal' font-weight='normal' fill='#000000' font-family="'DroidSans'" id='schematicLabel' fill-opacity='1' stroke='none' ><text x='0' y='3.75'>GREEN LED</text></g></g></g></g><g partID='63170' id='partLabel'><g transform='translate(193.2,0)' ><g font-size='5' font-style='normal' font-weight='normal' fill='#000000' font-family="'DroidSans'" id='schematicLabel' fill-opacity='1' stroke='none' ><text x='0' y='3.75'>U1</text></g></g></g><g partID='73140' id='partLabel'><g transform='translate(60.768,108.513)' ><g transform='matrix(0,-1,1,0,0,0)'  ><g font-size='5' font-style='normal' font-weight='normal' fill='#000000' font-family="'DroidSans'" id='schematicLabel' fill-opacity='1' stroke='none' ><text x='0' y='3.75'>16 Mhz</text></g></g></g></g><g partID='57880' id='partLabel'><g transform='translate(242.973,122.845)' ><g transform='matrix(0,-1,1,0,0,0)'  ><g font-size='5' font-style='normal' font-weight='normal' fill='#000000' font-family="'DroidSans'" id='schematicLabel' fill-opacity='1' stroke='none' ><text x='0' y='3.75'>RED LED</text></g></g></g></g><g partID='88590' id='partLabel'><g transform='translate(34.821,10.7919)' ><g font-size='5' font-style='normal' font-weight='normal' fill='#000000' font-family="'DroidSans'" id='schematicLabel' fill-opacity='1' stroke='none' ><text x='0' y='3.75'>Serial UART</text></g></g></g></svg>